<?xml version="1.0" encoding="UTF-8"?>
<svg width="2501px" height="2502px" viewBox="0 0 2501 2502" version="1.1" xmlns="http://www.w3.org/2000/svg" xmlns:xlink="http://www.w3.org/1999/xlink">
    <title>g22511</title>
    <g id="Page-1" stroke="none" stroke-width="1" fill="none" fill-rule="evenodd">
        <g id="g22511" transform="translate(1250.68, 1250.9984) scale(-1, 1) rotate(-90) translate(-1250.68, -1250.9984)translate(0.4766, 1.2018)" fill-rule="nonzero">
            <g id="g3825">
                <path d="M1250,2499.5931 C1940.51107,2499.5931 2500.4069,1940.10417 2500.4069,1249.5931 C2500.4069,559.082031 1940.51107,0 1250,0 C559.488932,0 0,559.488932 0,1250 C0,1940.51107 559.895833,2499.5931 1250,2499.5931" id="path22527" fill="#FDE100"></path>
                <g id="g22529" transform="translate(60.555, 60.4045)" fill="#231F20">
                    <path d="M2380.37109,1189.37174 C2380.37109,1846.51693 1846.51693,2378.74349 1189.37174,2378.74349 C532.226563,2378.74349 0,1846.51693 0,1189.37174 C0,532.226562 532.226563,0 1189.37174,0 C1846.51693,0 2380.37109,531.819661 2380.37109,1189.37174 Z M2313.63932,1189.37174 C2313.63932,568.847656 1809.89583,66.3248698 1189.37174,66.3248698 C568.847656,66.3248698 66.3248698,568.440755 66.3248698,1189.37174 C66.3248698,1809.89583 568.440755,2313.63932 1189.37174,2313.63932 C1810.30273,2313.63932 2313.63932,1809.89583 2313.63932,1189.37174 Z M2132.16146,1561.6862 L1186.11654,1255.69661 L1186.11654,1123.86068 L2132.16146,822.347005 L2132.16146,1006.26628 L1500.65104,1190.18555 L2132.16146,1372.88411 L2132.16146,1561.6862 L2132.16146,1561.6862 Z M1666.66667,2034.50521 L733.642578,2034.50521 L733.642578,1741.53646 C733.642578,1504.31315 1020.91471,1383.87044 1197.91667,1549.07227 L1199.13737,1549.07227 C1199.95117,1549.07227 1200.35807,1547.85156 1200.35807,1547.85156 C1354.98047,1410.72591 1628.01107,1468.50586 1666.25977,1723.63281 L1666.25977,2034.50521 L1666.66667,2034.50521 Z M1666.66667,822.347005 L733.642578,822.347005 L733.642578,527.750651 C733.642578,290.527344 1020.91471,170.084635 1197.91667,335.286458 L1199.13737,335.286458 C1199.95117,335.286458 1200.35807,334.065755 1200.35807,334.065755 C1354.98047,196.940104 1628.01107,254.720052 1666.25977,509.847005 L1666.25977,822.347005 L1666.66667,822.347005 Z M1492.10612,1863.19987 L1492.10612,1718.75 C1492.10612,1625.16276 1312.66276,1606.03841 1283.77279,1713.05339 L1283.77279,1863.19987 L1492.10612,1863.19987 Z M1492.10612,648.193359 L1492.10612,505.371094 C1492.10612,411.783854 1312.66276,392.252604 1283.77279,499.674479 L1283.77279,648.193359 L1492.10612,648.193359 Z M1116.94336,1863.19987 L1116.94336,1735.83984 C1116.94336,1630.04557 924.479167,1591.38997 897.623698,1728.92253 L897.623698,1863.60677 L1116.94336,1863.60677 L1116.94336,1863.19987 Z M1116.94336,648.193359 L1116.94336,522.054036 C1116.94336,416.259766 924.479167,377.604167 897.623698,515.136719 L897.623698,648.193359 L1116.94336,648.193359 Z M713.297526,1373.29102 C713.297526,1448.97461 651.448568,1510.82357 575.764974,1510.82357 L369.059245,1510.82357 C293.375651,1510.82357 231.526693,1448.97461 231.526693,1373.29102 L231.526693,1370.44271 C231.526693,1294.75911 293.375651,1232.91016 369.059245,1232.91016 L575.764974,1232.91016 C651.448568,1232.91016 713.297526,1294.75911 713.297526,1370.44271 L713.297526,1373.29102 Z M713.297526,1009.52148 C713.297526,1085.20508 654.296875,1149.90234 578.613281,1149.90234 L544.433594,1149.90234 C468.75,1149.90234 407.714844,1080.72917 405.680339,1009.52148 C405.680339,1009.52148 406.08724,980.63151 414.22526,965.576172 L367.431641,964.355469 C343.83138,964.355469 323.079427,983.479818 323.486328,1006.67318 C323.893229,1025.79753 333.658854,1051.83919 357.666016,1051.83919 C357.666016,1051.83919 388.997396,1047.77018 388.997396,1070.14974 L388.997396,1149.49544 C381.266276,1149.90234 376.790365,1149.49544 366.210937,1149.49544 C294.596354,1149.49544 231.526693,1088.05339 231.526693,1005.04557 C232.340495,926.513672 292.561849,871.988932 370.279948,871.988932 L576.985677,871.988932 C652.669271,871.988932 712.890625,930.989583 712.890625,1006.67318 L712.890625,1009.52148 L713.297526,1009.52148 Z M615.641276,1007.89388 C615.641276,983.072917 596.923828,963.948568 573.323568,963.948568 L546.468099,963.948568 C522.867839,963.948568 504.150391,982.666016 504.150391,1006.26628 C504.150391,1031.08724 522.867839,1051.43229 546.468099,1051.43229 L573.323568,1051.43229 C596.923828,1051.83919 615.641276,1031.49414 615.641276,1007.89388 Z M614.420573,1373.29102 C614.420573,1348.06315 595.703125,1328.125 572.102865,1328.125 L366.617839,1328.125 C343.017578,1328.125 324.30013,1348.47005 324.30013,1372.07031 C324.30013,1396.89128 343.017578,1416.01562 366.617839,1416.01562 L572.102865,1416.01562 C595.703125,1415.60872 614.420573,1396.89128 614.420573,1373.29102 Z" id="path22531"></path>
                </g>
            </g>
        </g>
    </g>
</svg>