<svg id="svg3240" xmlns="http://www.w3.org/2000/svg" viewBox="0 0 992.2 529.2" width="2500" height="1333"><style>.st0{fill:#fff}.st1{fill:#da0034}.st2{fill:#001b46}.st3{fill:#ffd401}.st4{fill:#d9d9d9}</style><path id="path2760" class="st0" d="M992 315.3c-3.5-8.2-150.7-52.3-177.7-59.5-1.6-.4-4.8-1.5-4.8-1.5s-.2-2.9 0-4.5c.3-3.3.1-8.2.2-11.5 0 0 16.4.9 19.9-.5 10.1-3.9 13.9-17.4 10.4-27-1.8-5-9.7-8.1-11.3-12.3-1.5-4-2.6-7.1-6.7-9.2-6.8-3.4-24-6.5-31.6-5.8-6.4.6-7.6 7.9-11.6 9.6-15.8 6.8-22.8 3.6-22.7 27.2l.3 2.1c-6.2-3-15-7.3-21.3-10V0H257.2v212.5c-6.4 2.7-15.1 7-21.3 10l.3-2.1c.2-23.5-6.9-20.4-22.7-27.2-3.9-1.7-5.2-9.1-11.6-9.6-7.6-.7-24.8 2.4-31.6 5.8-4.2 2.1-5.2 5.2-6.7 9.2-1.6 4.2-9.5 7.3-11.3 12.3-3.5 9.5.3 23 10.4 27 3.5 1.4 19.9.5 19.9.5.1 3.3-.1 8.2.2 11.5.1 1.7 0 4.5 0 4.5s-3.2 1.1-4.8 1.5C151 263.1 3.8 307.2.3 315.4c-.9 1.8 1.1 2.3 1.1 2.3 3.6.4 96.3-21 113.8-24.2 19.9-3.7 35.5-6.9 60.6-10.6l-.1 1.4c0 8.1 1.7 8.1 8.5 10.4l-.2 1.5c-8.4 1.7-35 5.7-40.9 9.6-6.4 4.3-21.4-1-31.9 13.3-2.8 3.7-2.8 19.3-.1 23 4.4 6.1 9 3.4 15.1 4.3 3.7.6 5.5 4.1 8.5 5.8 3 1.6 7.2 1 10.5 1.1 7.9.2 10.5-6.9 16.1-10.8 2.7-1.9 5.9-.6 8.9-1.4 4.5-1.2 7.4-6.3 11.3-8.4 2.3-1.2 7.7-.8 9.9.5 14.1 8.7 51.5-.2 65.9-9.1v49.2s-1.1 15.3 8.1 31.2c45.1 77.4 140.9 124.8 230.8 124.8S681.9 481.9 727 404.5c9.2-15.9 8.1-31.2 8.1-31.2v-49.2c14.4 8.9 51.8 17.8 65.9 9.1 2.2-1.4 7.6-1.7 9.9-.5 3.9 2 6.9 7.1 11.3 8.4 3 .8 6.2-.5 8.9 1.4 5.6 3.9 8.1 11 16.1 10.8 3.3-.1 7.5.5 10.5-1.1 3-1.7 4.9-5.2 8.5-5.8 6.1-.8 10.7 1.8 15.1-4.3 2.7-3.7 2.7-19.2-.1-23-10.5-14.3-25.5-9-31.9-13.3-5.8-3.9-32.4-7.9-40.9-9.6l-.2-1.5c6.7-2.3 8.5-2.2 8.5-10.4l-.1-1.4c25 3.7 40.6 6.9 60.6 10.6 17.5 3.2 110.2 24.6 113.8 24.2-.1-.2 1.9-.7 1-2.4z"/><path id="path3041" class="st1" d="M487.2 75.1c0-13.8-10.9-25-24.2-25h-30.9v84.5h17.1V64.7l10.2-.1c6.3 0 11.1 4.9 11.1 11.1 0 6.1-5.1 11.1-11.4 11.1l-4 .1V107l17.1 27.7h20.2l-23.6-35.3c10.5-2.7 18.4-12.6 18.4-24.3"/><path id="path2762" class="st2" d="M697.9 363.4c-.7 12.3-3.9 19.2-9.5 28-42.6 61.3-112.4 101.4-192.3 101.4s-149.6-40.1-192.3-101.4c-5.6-8.8-8.8-15.7-9.5-28v-32.7h-23.1v27.7c0 26 3.1 32.2 9.2 42.8C327.4 470.5 406 516 496 516c90.1 0 168.7-45.5 215.6-114.8 6.1-10.6 9.2-16.7 9.2-42.8v-27.7h-23.1v32.7h.2zm13.3-12.4v-16h2.9v18.8c-.1 15.2-.2 30.6-8.3 42.6-10.4 15.9-23.6 31.4-38 44.9-48.2 43.8-105.9 67.3-171.7 67.6-65.8-.3-123.5-23.8-171.7-67.6-14.5-13.5-27.6-29-38-44.9-8.1-11.9-8.2-27.3-8.3-42.6V335h2.9v16c.4 15.4-.7 31.7 7.9 43.8 11.1 17 25 33 40.8 47.2 47 41.2 102.5 63.4 166.4 63.8 63.9-.4 119.4-22.7 166.4-63.8 15.8-14.3 29.6-30.3 40.8-47.2 8.6-12.2 7.5-28.4 7.9-43.8z"/><path id="path2764" class="st2" d="M496.1 14.6H271.3v192.2l23.1-10.9V37.7H698v158.2l23.1 10.9V14.6h-225zm218 184.6l-2.9-1.4V24.4h-430v173.5l-2.9 1.4V21.4h436l-.2 177.8z"/><path id="path3043" class="st1" d="M552.9 88.4c4.4-4.3 7.1-10.1 7.1-16.5 0-5.8-2.1-11.1-5.8-15.2-3.8-4.5-10.6-6.4-19.8-6.4h-27.5v84.4h35.5c13.6-.2 24.6-11.1 24.6-24.4 0-9.7-3.2-16.6-14.1-21.9m-13.5 31.5H524v-55h10.7c4.7 0 8.5 4 8.5 9s-3.8 9-8.5 9h-5.6v15.3h10.2c5.7 0 10 4.9 10 10.9 0 6.1-3.6 10.4-9.9 10.8"/><path id="path2766" class="st1" d="M866.8 323c5.5 1.5 3.8 7.8 5 12.2-.2.3-.6 1-1.1.9-2-.9-5.3-.2-6.8-2.1-.6-2.3-1.5-3.9-1.7-6.4.5-2 2.6-4.3 4.6-4.6z"/><path id="path2768" class="st1" d="M816.4 228.6c-6.7-1.2-13.6-2.3-20.1-4.2-2.5-3.3-7.2-2.3-10.7-3.4-2.9 1.1 7.4 9.3 8.7 10.9 1.3 1.7 3.6 7 4 9.1.8 4.6-2 10.3-6.2 12.3-3.8 1.8-7.1.8-10.7-.5-3-1.2-12.4-3.7-13.3-7 .9-2.4 16.6.4 19.7-1.7 1.5-1-.7-3.4-1.2-4.5-2.1-5.2-19-17.3-20.2-22-2.5-10.1 14.6-12.1 21-13.5 1.3-.3 9.3-1.8 8.1-4-.1-.2-3.1-3-3.8-3.9l.8-.9c2.4-.2 20.2 4.1 23.2 5.1.8.3 1.2 1 1.5 1.7-1.8 2.9 1 5.5.3 8.4-.4 2-8 1.5-4.4 5.2l5.8.7c2.6-1.1-.8-3.7 2.2-4.4 2.4.9 6.2 1.6 7.4 4.2 1.1 2.2 1.1 6-.3 8-2.6 4-7.5 5.2-11.8 4.4z"/><path id="path2770" class="st1" d="M852.4 319.2c.4-1.1 7.4.1 7.8 1.5.5 2-6 3-7.8-1.5z"/><path id="path2772" class="st1" d="M544.7 294.2c4.9-3.4 7.7-8.6 11.5-12.9 1.4-1.6 3.4-2.7 4.8-4.2.9-1 6.3-12.7 7.2-14.8l1.2-.6c10 .5 20 .7 29.9.9 4.3.1 9.9 1 14.2.5.6-.1.8-.6.6-1.2-9.4-3.2-26.6 1.9-33.2-6.8-.9-1.2-.7-3.2-2.3-3.6-1.7.9-3.5 1.7-5.5 1.2l-.9-1.2c1.5-6.2 3.1-12.8 7.2-17.9 6.4-8.1 22-25.2 30.9-29.6 4-2 8.9-9 10.5-6.5-.1.9.4 1.6 1 2.2 3.9.8 3.8-6.6 9-9.7 5.3-3.2 12.1-4.8 18.2-3.5 7.4 1.6 15.1 5.6 21.8 9 14.8 7.5 29.7 15 44.6 22.4 7 3.5 14.1 7.4 21.3 10.5 1.7.7 4.1 1 4.9 3 1 2.7-1.3 6.6-3.4 8-4.6 3-11.6-.7-16.1-2.5l-.7.4c3.2 4.1 6.9 4.2 11.5 5.1 3.7.8 7.3 2.7 11 3.8 5 1.4 9.9 3 14.8 4.6 2.1.7 5.5 1.2 4.9 4.2.7 1.7 2.6 1.4 4.1 1.7 16.2 3 32.4 7 48.6 10.5 10 2.2 20.1 4.6 30 7.2 33.3 8.7 66.6 16.9 99.4 27.1 3.2 1 20.4 6 21.8 7.4-2.1.5-53.9-13.7-61.6-15.5-48.4-11.8-97.5-20.5-146.6-29-46.5-8-93.6-14.3-140.5-20.3-8.1-1-16.3-2.2-24.5-3-5.2-.5-6.1 1.3-9.7 4.7 0 2.3 9.7 1.7 11.9 1.9.4-.3.3-.7.1-1.1-1.5-.8-3.1-1.5-4.3-2.9l.6-1.2c17 1.5 34.2 4.6 51.1 7.2 25.9 4 51.9 7.9 77.7 12.5 17.3 3.1 34.4 7.5 51.7 10.8v.8c-31.2-3.3-62.1-10.8-93.2-15.2l-.1.8c7.6 2.3 15.4 3.5 23 5.4 35.3 8.4 70.8 15.4 106.1 23.8-6.2-.9-12.5-1.7-18.7-2.5-2.4 1.5.6 4-.6 6.9-2.1 5.1-6.2.3-6.6 2.9-.2 1 1.2 4.3 2.2 4.9 14.2 1.7 28.2 5.7 42.4 7.5l.2 1.2-8.9.3-1 .7c0 2.2 3.2 1.4 4.6 1.7 5 1 10 2.2 15 3.1 11.1 2.1 9.6 10.5 17.3 12.5.8.2 1.4.7 1.9 1.3.1 3.1-4.1-1.4-5.3 1.5.8 3.2 2.6 6.2 1.3 9.5-.5 1.2-1.2 2.5-2.6 2.9-6.7 1.9-9.3-10-13.5-12.4-3.4-1.9-7.6 2.4-12-.1-2.5-1.4-5-2.8-7.5-4.3-2.7-1.6-6-7.7-9.9-7-3 .6-4.1 5.2-9 5.6-7.9.7-16.3.9-24.2-.2-12.9-1.8-34.7-8.2-44.3-17.1 1.2-3.6 12.1-.4 14.8 0-2.5-5.2.9-7.5-1.8-8.8l-11.1-1.1c-3.3-.3-6.6-1.2-10-1.6-3.4-.4-6.9-.2-10.2-.6-2-.3-5.4-.9-6.4-2.9.3-1.6 1.5-3.7.3-5.2-1.4-1.9-5.2-2.3-7.4-3.1-2.9-1.1-5.3-3.2-8.2-4.1-3.4 1-.4 6.3-4.4 7.4-3.7 1-12.6-3.7-15-.7 0 1.6 1.1 4-.4 5.2-2.4 1.9-5.4 2.3-7.8 4.8-3.1 3.2-7.4 9.2-6.1 14 1.4 4.9 13 10.5 17.3 7.7 2.8-1.8 2.6-5.9 6.6-4.7 4.7 1.5 9.6 1.8 14.3 3.1 3.9 1.1 9.4 1.9 12.9 3.7.5.2 1.5 1.2.9 1.8-1.8 2-19.4-.2-22.9-.5-1.6-.2-3-.2-4.2 1.1-2.2 2.5 2.7 3.2 1.3 5.4-2 3.1-7.1 4.3-10.5 3.4-6.1-1.5-12.5-4.1-18.3-6.6-1.8-.8-3.8-2.1-5.7-2.7-4.5-1.5-9.5 1-12.6-4.2-2.8-4.6-6.6-9.8-6.6-15.4 0-4.6 2.9-7.4 4.5-11.4.6-1.4 3.5-8.7 3.4-9.7 0-.7-3.1-7.7-3.7-7.8l-19.8-2.5c-.4 0-1.5.8-1.6 1.2-.8 4 5.2 8.7 7.4 11.4.8 1 2.5 3.8 2 5.1-.8 2.3-4-1.2-4.4 1.4-.3 1.8 3.8 4.7 3.4 8-.4 2.8-.6 6.9-3.4 8.2-4.8 2.3-5.2-1.6-7.4-1.7-.9 0-2.2.5-3.2.5-3 0-5.8-.9-8.6-1.7-5.6-1.5-22.6-9.5-27.2-8.9-5.3.8-8.3 9.9-24.6 10.4l-.9-1.3c5.6-5.4 9.6-1.8 15.4-13.5 1.6-3.1 4.2-6.6 6.6-9.1.1-.5-.1-1.1-.7-1.2-9.9 3.5-11.4 19-26.1 17.8l-.8-.9c1.2-1.5 4.2-2 5.6-3zm129.6-76.8c-1.1-1.4-2.7-2.4-4.2-3.3-2 .2-3.1.7-5.1 0-4.5-1.5-22.2-6.2-26.1-5.5-.3 1.2 1.6 1.4 2.4 1.6 10.6 2.9 21.7 5.5 32.5 7.6l.5-.4zm-70.9 11.3c20.4 3 62.8 9 62.8 9l-2.9-1.3-61.2-10c-.6-.1-1.3.1-1.8.4-.4 1.5 2.3 1.8 3.1 1.9zm151.2 82.7l20.9 5.3c.4 0 1.2-.1 1.5-.7-.1-.8-1-2.1-1.9-2.4-5.3-1.5-10.6-1.9-15.8-3-3.2-.7-4.5-.6-7-.8l2.3 1.6zm-112.2 3.5c.5-.1 1.2-.4 1.3-1.1-1.2-4.5-3.6-10.7-.2-15.2l4.9-10.6c-.4-1.5-2-1.7-3.3-2.1-1-.1-1.9.8-2.1 1.8l-5.8 13.6c-1.3 5.4 1.8 10.2 5.2 13.6zM587.9 292c1.7.2 4 .8 5.3-.2.8-1.5-.4-3.1-1.1-4.5-1.5-1.9-3.8-2.4-6.1-2.4-.6.4-.7 1-.7 1.5.2 2.2.6 4.5 2.6 5.6z"/><path id="path2774" class="st1" d="M681 307.8c-1.9.2-2.1-2.1-3.8-2.6-3.2 2.3-3 6.4-6.2 8.7-1.7.3-4.1-.8-6-1.2-1.3-.7-2.6-2-2.6-3.4.7-2.5 2.2-4.8 2.7-7.5 1.4-4.2 6.4-1.4 9.5-1.4 3.4.9 6.4-.5 9.4-1.2.9.1 1.4.8 1.9 1.3.6 1.3.4 2.8-.1 4-1 2-2.9 3.1-4.8 3.3z"/><path id="path2778" class="st3" d="M598.7 206.3c-8.1 7-24.9 23.3-28.4 33.1-8.3 23.6-6.8 28.6-25 47.5-6.3 6.5-10.7 2.2-10.2 13.3l3 3 2.5.4v3.7l3 3.1c16.5.7 15.4-2.6 28.4-9.6 9.1 2.5 17.5 7 26.7 9.2-22.8 42.3-74.2 72.8-122.7 61.1 7.2-.1 20.4-.1 27.7-.7 9.9-.7 25.7-5.3 36-12.6-.9-.3-18.3 6.9-35.8 6.9-44.9 0-87.5-13.7-110-54.9 5.3-1.5 22.6-9.3 26.1-9.1 3.7.3 9.2 11.1 28 9.6 3-.2 4.8-4.5 3.8-7.1 2.4.4 4.6-1 5.5-3.3.5-1.4.7-4 0-5.3-.9-1.7-4.4-3.6-6-4.5-6.6-3.9-9.3-11.8-15.6-16-15.9-32.9-14.3-47.9-47-72 42.6-94.5 170.4-85.3 214.4.6L599 206c.3.1-.8-.2-.3.3"/><path id="path2780" class="st0" d="M425.6 197.6c0-38.9 31.5-70.4 70.4-70.4 38.9 0 70.4 31.5 70.4 70.4 0 38.9-31.5 70.4-70.4 70.4-38.9 0-70.4-31.5-70.4-70.4"/><path id="path2782" class="st4" d="M443.1 235.6c20.5 14.8 49.4 17.2 72.1 5 24.6-12.7 39.4-38.9 37.2-67.1-.4-4.1-1.1-8.1-2.1-12 6.9 10.4 10.9 22.8 10.9 36.1 0 36-29.2 65.1-65.1 65.1-21.9 0-41.2-10.7-53-27.1"/><path id="path2784" class="st2" d="M476.8 213.9c-15.2-3.7-25.6-7.3-25.6-7.3-1.6-15.7-.3-29.4-.3-29.4 6.6-3.4 24.5-11.4 24.5-11.4 8.5 9.6 16.6 22.6 16.6 22.6-4 7.5-15.2 25.5-15.2 25.5m-25.1-64c-1.5 2.5-6 10-10 19-3.8 4.8-7.1 9.6-8.6 11.7 3.2-12 9.8-22.6 18.6-30.7m68.3 37.8s5.7-11.9 12.6-21.5c0 0 13.2 6.2 19.4 11.3 0 0 2.3 7.1.8 27.9 0 0-7.9 4.6-19.3 7.4-.1-.1-7.8-13.1-13.5-25.1m-29.5 48.9l28.2-.8 5.4 15.3c-10.7 6.3-23.5 9.6-23.5 9.6-13.4-2.9-21.2-8.8-21.2-8.8l11.1-15.3zm5.5-104.1c8.6 0 16.8 1.6 24.3 4.7-.3 1.2-1.2 4.6-3.8 9-13.6-1.8-28.7-.4-28.7-.4l-12.6-9.9c6.6-2.2 13.5-3.4 20.8-3.4m-41.7 115.1c-10.8-9-18.6-21.4-21.8-35.6 3.5 3.6 10.2 10.5 10.2 10.5 4.1 8.4 14.2 23 14.2 23-.8.8-1.9 1.6-2.6 2.1"/><path id="path2786" class="st1" d="M125.4 323c-5.5 1.5-3.8 7.8-5 12.2.2.3.6 1 1.1.9 2-.9 5.3-.2 6.8-2.1.6-2.3 1.5-3.9 1.7-6.4-.5-2-2.5-4.3-4.6-4.6z"/><path id="path2788" class="st1" d="M175.8 228.6c6.7-1.2 13.6-2.3 20.1-4.2 2.5-3.3 7.2-2.3 10.7-3.4 2.9 1.1-7.4 9.3-8.7 10.9-1.3 1.7-3.6 7-4 9.1-.8 4.6 2 10.3 6.2 12.3 3.8 1.8 7.1.8 10.7-.5 3-1.2 12.4-3.7 13.3-7-.9-2.4-16.6.4-19.7-1.7-1.5-1 .7-3.4 1.2-4.5 2.1-5.2 19-17.3 20.2-22 2.5-10.1-14.6-12.1-21-13.5-1.3-.3-9.3-1.8-8.1-4 .1-.2 3.1-3 3.8-3.9l-.8-.9c-2.4-.2-20.2 4.1-23.2 5.1-.8.3-1.2 1-1.5 1.7 1.8 2.9-1 5.5-.3 8.4.4 2 8 1.5 4.4 5.2l-5.8.7c-2.6-1.1.8-3.7-2.2-4.4-2.4.9-6.2 1.6-7.4 4.2-1.1 2.2-1.1 6 .3 8 2.7 4 7.5 5.2 11.8 4.4z"/><path id="path2790" class="st1" d="M139.9 319.2c-.4-1.1-7.4.1-7.8 1.5-.6 2 6 3 7.8-1.5z"/><path id="path2792" class="st1" d="M447.5 294.2c-4.9-3.4-7.7-8.6-11.5-12.9-1.4-1.6-3.4-2.7-4.8-4.2-.9-1-6.3-12.7-7.2-14.8l-1.2-.6c-10 .5-20 .7-29.9.9-4.3.1-9.9 1-14.2.5-.6-.1-.8-.6-.6-1.2 9.4-3.2 26.6 1.9 33.2-6.8.9-1.2.7-3.2 2.3-3.6 1.7.9 3.5 1.7 5.5 1.2l.9-1.2c-1.5-6.2-3.1-12.8-7.2-17.9-6.4-8.1-22-25.2-30.9-29.6-4-2-8.9-9-10.5-6.5.1.9-.4 1.6-1 2.2-3.9.8-3.8-6.6-9-9.7-5.3-3.2-12.1-4.8-18.2-3.5-7.4 1.6-15.1 5.6-21.8 9-14.8 7.5-29.7 15-44.6 22.4-7 3.5-14.1 7.4-21.3 10.5-1.7.7-4.1 1-4.9 3-1 2.7 1.3 6.6 3.4 8 4.6 3 11.6-.7 16.1-2.5l.7.4c-3.2 4.1-6.9 4.2-11.5 5.1-3.7.8-7.3 2.7-11 3.8-5 1.4-9.9 3-14.8 4.6-2.1.7-5.5 1.2-4.9 4.2-.7 1.7-2.6 1.4-4.1 1.7-16.2 3-32.4 7-48.6 10.5-10 2.2-20.1 4.6-30 7.2-33.3 8.7-66.6 16.9-99.4 27.1-3.2 1-20.4 6-21.8 7.4 2.1.5 53.9-13.7 61.6-15.5 48.4-11.8 97.5-20.5 146.6-29 46.5-8 93.6-14.3 140.5-20.3 8.1-1 16.3-2.2 24.5-3 5.2-.5 6.1 1.3 9.7 4.7 0 2.3-9.7 1.7-11.9 1.9-.4-.3-.3-.7-.1-1.1 1.5-.8 3.1-1.5 4.3-2.9l-.6-1.2c-17 1.5-34.2 4.6-51.1 7.2-25.9 4-51.9 7.9-77.7 12.5-17.3 3.1-34.4 7.5-51.7 10.8v.8c31.2-3.3 62.1-10.8 93.2-15.2l.1.8c-7.6 2.3-15.4 3.5-23 5.4-35.3 8.4-70.8 15.4-106.1 23.8 6.2-.9 12.5-1.7 18.7-2.5 2.4 1.5-.6 4 .6 6.9 2.1 5.1 6.2.3 6.6 2.9.2 1-1.2 4.3-2.2 4.9-14.2 1.7-28.2 5.7-42.4 7.5l-.2 1.2 8.9.3 1 .7c0 2.2-3.2 1.4-4.6 1.7-5 1-10 2.2-15 3.1-11.1 2.1-9.6 10.5-17.3 12.5-.8.2-1.4.7-1.9 1.3-.1 3.1 4.1-1.4 5.3 1.5-.8 3.2-2.6 6.2-1.3 9.5.5 1.2 1.2 2.5 2.6 2.9 6.7 1.9 9.3-10 13.5-12.4 3.4-1.9 7.6 2.4 12-.1 2.5-1.4 5-2.8 7.5-4.3 2.7-1.6 6-7.7 9.9-7 3 .6 4.1 5.2 9 5.6 7.9.7 16.3.9 24.2-.2 12.9-1.8 34.7-8.2 44.3-17.1-1.2-3.6-12.1-.4-14.8 0 2.5-5.2-.9-7.5 1.8-8.8l11.1-1.1c3.3-.3 6.6-1.2 10-1.6 3.4-.4 6.9-.2 10.2-.6 2-.3 5.4-.9 6.4-2.9-.3-1.6-1.5-3.7-.3-5.2 1.4-1.9 5.2-2.3 7.4-3.1 2.9-1.1 5.3-3.2 8.2-4.1 3.4 1 .4 6.3 4.4 7.4 3.7 1 12.6-3.7 15-.7 0 1.6-1.1 4 .4 5.2 2.4 1.9 5.4 2.3 7.8 4.8 3.1 3.2 7.4 9.2 6.1 14-1.4 4.9-13 10.5-17.3 7.7-2.8-1.8-2.6-5.9-6.6-4.7-4.7 1.5-9.6 1.8-14.3 3.1-3.9 1.1-9.4 1.9-12.9 3.7-.5.2-1.5 1.2-.9 1.8 1.8 2 19.4-.2 22.9-.5 1.6-.2 3-.2 4.2 1.1 2.2 2.5-2.7 3.2-1.3 5.4 2 3.1 7.1 4.3 10.5 3.4 6.1-1.5 12.5-4.1 18.3-6.6 1.8-.8 3.8-2.1 5.7-2.7 4.5-1.5 9.5 1 12.6-4.2 2.8-4.6 6.6-9.8 6.6-15.4 0-4.6-2.9-7.4-4.5-11.4-.6-1.4-3.5-8.7-3.4-9.7 0-.7 3.1-7.7 3.7-7.8l19.8-2.5c.4 0 1.5.8 1.6 1.2.8 4-5.2 8.7-7.4 11.4-.8 1-2.5 3.8-2 5.1.8 2.3 4-1.2 4.4 1.4.3 1.8-3.8 4.7-3.4 8 .4 2.8.6 6.9 3.4 8.2 4.8 2.3 5.2-1.6 7.4-1.7.9 0 2.2.5 3.2.5 3 0 5.8-.9 8.6-1.7 5.6-1.5 22.6-9.5 27.2-8.9 5.3.8 8.3 9.9 24.6 10.4l.9-1.3c-5.6-5.4-9.6-1.8-15.4-13.5-1.6-3.1-4.2-6.6-6.6-9.1-.1-.5.1-1.1.7-1.2 9.9 3.5 11.4 19 26.1 17.8l.8-.9c-1.2-1.5-4.1-2-5.6-3zM318 217.4c1.1-1.4 2.7-2.4 4.2-3.3 2 .2 3.1.7 5.1 0 4.5-1.5 22.2-6.2 26.1-5.5.3 1.2-1.6 1.4-2.4 1.6-10.6 2.9-21.7 5.5-32.5 7.6l-.5-.4zm70.8 11.3c-20.4 3-62.8 9-62.8 9l2.9-1.3 61.2-10c.6-.1 1.3.1 1.8.4.4 1.5-2.2 1.8-3.1 1.9zm-151.1 82.7l-20.9 5.3c-.4 0-1.2-.1-1.5-.7.1-.8 1-2.1 1.9-2.4 5.3-1.5 10.6-1.9 15.8-3 3.2-.7 4.5-.6 7-.8l-2.3 1.6zm112.2 3.5c-.5-.1-1.2-.4-1.3-1.1 1.2-4.5 3.6-10.7.2-15.2l-4.9-10.6c.4-1.5 2-1.7 3.3-2.1 1-.1 1.9.8 2.1 1.8l5.8 13.6c1.3 5.4-1.8 10.2-5.2 13.6zm54.5-22.9c-1.7.2-4 .8-5.3-.2-.8-1.5.4-3.1 1.1-4.5 1.5-1.9 3.8-2.4 6.1-2.4.6.4.7 1 .7 1.5-.2 2.2-.7 4.5-2.6 5.6z"/><path id="path2794" class="st1" d="M311.3 307.8c1.9.2 2.1-2.1 3.8-2.6 3.2 2.3 3 6.4 6.2 8.7 1.7.3 4.1-.8 6-1.2 1.3-.7 2.6-2 2.6-3.4-.7-2.5-2.2-4.8-2.7-7.5-1.4-4.2-6.4-1.4-9.5-1.4-3.4.9-6.4-.5-9.4-1.2-.9.1-1.4.8-1.9 1.3-.6 1.3-.4 2.8.1 4 .9 2 2.8 3.1 4.8 3.3z"/><path id="path2796" class="st0" d="M434.2 158.6l-.7-.4c-13.5 5.7-30.1 24.6-35.9 38 5.6-7.5 11.9-14.6 19.1-20.6 4.2-3.6 9.5-6.1 12.6-10.8 1-1.7 3.7-4.5 4.9-6.2"/><path id="polygon3075" class="st2" d="M391.2 348.9l6.2 6.3-54 53.1 6.2 6.2 12.5-12.3 6.1 6.2-18.7 18.5-18.4-18.7z"/><path id="path3077" class="st2" d="M436.1 394.3l-15.1-8.8-14.5 25.2 11.4 6.6-4.4 7.6-11.4-6.6-14.5 25.2 15.1 8.8-4.4 7.6-15.1-8.8c-4.2-2.4-5.6-7.7-3.2-11.9l33.5-57.9c2.4-4.2 7.7-5.6 11.9-3.2l15.1 8.8-4.4 7.4z"/><path id="rect3079" transform="rotate(-74.342 447.694 433.174)" class="st2" d="M405.5 428.8h84.4v8.7h-84.4z"/><path id="path3081" class="st2" d="M482 397.5l17.5.8c4.8.2 8.6 4.3 8.3 9.1l-1.3 29.1c-.2 4.8-4.3 8.6-9.1 8.3l-8.7-.4-1.7 37.8-8.7-.4 3.7-84.3zm7 38.2l8.7.4L499 407l-8.7-.4-1.3 29.1z"/><path id="polygon3083" class="st2" d="M522 395.6l25.1-7.4 2.5 8.3 2.6 69.1 8.1-2.4-5-16.8 8.4-2.5 7.5 25.2-25.1 7.4-2.5-8.3-2.6-69.1-8.1 2.4 5 16.8-8.4 2.5z"/><path id="rect3085" transform="rotate(-30.859 588.068 414.37)" class="st2" d="M583.7 372.1h8.8v84.4h-8.8z"/><path id="path3087" class="st2" d="M591.7 375.9c-5.2-5-5.5-13.3-.5-18.5 4.9-5.2 13.3-5.5 18.5-.5l7 6.6-6 6.4-9.6-9.1-6 6.4 48.7 45.9 6-6.4-21.2-20-2.6 2.8-6.4-6 8.6-9.1 24.9 23.4c5.2 4.9 5.5 13.3.5 18.5-4.9 5.2-13.3 5.5-18.5.5l-43.4-40.9z"/></svg>
